<?xml version="1.0" encoding="UTF-8"?>
<svg xmlns="http://www.w3.org/2000/svg" xmlns:xlink="http://www.w3.org/1999/xlink" version="1.1" width="512" height="512" x="0" y="0" viewBox="0 0 100 100" style="enable-background:new 0 0 512 512" xml:space="preserve" class="">
  <g>
    <linearGradient id="a">
      <stop stop-opacity="1" stop-color="#29abe2" offset="0.184"/>
      <stop stop-opacity="1" stop-color="#ffef91" offset="0.821"/>
    </linearGradient>
    <linearGradient xlink:href="#a" id="b" x1="3.369" x2="94.971" y1="3.202" y2="95.135" gradientUnits="userSpaceOnUse"/>
    <linearGradient xlink:href="#a" id="c" x1="22.061" x2="113.664" y1="-15.423" y2="76.51" gradientUnits="userSpaceOnUse"/>
    <linearGradient xlink:href="#a" id="d" x1="40.754" x2="132.356" y1="-34.049" y2="57.885" gradientUnits="userSpaceOnUse"/>
    <linearGradient xlink:href="#a" id="e" x1="-34.016" x2="57.586" y1="40.452" y2="132.386" gradientUnits="userSpaceOnUse"/>
    <linearGradient xlink:href="#a" id="f" x1="-15.324" x2="76.279" y1="21.827" y2="113.761" gradientUnits="userSpaceOnUse"/>
    <path fill="url(#b)" d="M97.495 90.711a6.785 6.785 0 0 0-.136-1.323c0-.119 0-.237-.102-.356a6.785 6.785 0 0 0-.271-.916c0-.136-.136-.255-.204-.39a6.633 6.633 0 0 0-.424-.78 6.785 6.785 0 0 0-.848-1.035L54.8 45.2 14.09 4.49a6.785 6.785 0 0 0-1.035-.848c-.25-.159-.511-.3-.78-.424l-.39-.204a6.785 6.785 0 0 0-.917-.288l-.34-.102a6.785 6.785 0 0 0-1.34-.119 6.785 6.785 0 0 0-1.305.136c-.204 0-.407.119-.594.17a4.003 4.003 0 0 0-1.34.56c-.17.084-.34.152-.492.27a6.785 6.785 0 0 0-1.883 1.884c-.102.152-.186.339-.271.509-.131.213-.25.434-.356.661-.08.223-.148.449-.204.679 0 .203-.136.39-.17.593-.1.435-.156.878-.17 1.323.003.445.048.888.136 1.323 0 .12 0 .221.102.34.074.317.17.629.289.933 0 .118.135.237.186.356.123.28.264.553.424.814.248.372.532.719.848 1.035l40.71 40.71 40.711 40.71c.316.317.663.6 1.035.849.25.158.51.3.78.424l.39.203c.298.118.605.214.916.289l.34.101c.441.084.89.124 1.34.12a6.785 6.785 0 0 0 1.306-.136c.203 0 .39-.12.593-.17a3.986 3.986 0 0 0 1.34-.56c.17-.085.34-.17.492-.271a6.785 6.785 0 0 0 1.883-1.883c.102-.153.187-.34.272-.509a3.97 3.97 0 0 0 .56-1.34c0-.204.135-.39.169-.594.1-.434.157-.877.17-1.323z" opacity="1" data-original="url(#b)"/>
    <path fill="url(#c)" d="M41.806 4.49a6.785 6.785 0 0 0 0 9.6L85.91 58.195a6.789 6.789 0 0 0 9.601-9.601L51.407 4.49a6.785 6.785 0 0 0-9.6 0z" opacity="1" data-original="url(#c)"/>
    <path fill="url(#d)" d="M95.51 20.876a6.785 6.785 0 0 0 .005-9.596l-.005-.005-6.785-6.785a6.789 6.789 0 1 0-9.6 9.6l6.784 6.786a6.785 6.785 0 0 0 9.596.005l.005-.005z" opacity="1" data-original="url(#d)" class=""/>
    <path fill="url(#e)" d="m4.488 88.727 6.785 6.785a6.789 6.789 0 1 0 9.601-9.601l-6.785-6.785a6.789 6.789 0 1 0-9.6 9.6z" opacity="1" data-original="url(#e)"/>
    <path fill="url(#f)" d="m4.488 51.409 44.103 44.103a6.789 6.789 0 1 0 9.601-9.601L14.09 41.808a6.789 6.789 0 1 0-9.6 9.6z" opacity="1" data-original="url(#f)"/>
  </g>
</svg>
