<?xml version="1.0" encoding="UTF-8"?>
<svg xmlns="http://www.w3.org/2000/svg" xmlns:xlink="http://www.w3.org/1999/xlink" version="1.1" width="512" height="512" x="0" y="0" viewBox="0 0 512 512" style="enable-background:new 0 0 512 512" xml:space="preserve" class="">
  <g>
    <path d="M403.992 251.703 264.086 4.938C262.438 1.844 259.359 0 256 0s-6.438 1.844-8.023 4.812l-140.023 247c-15.789 26.594-24.109 56.953-24.109 87.938C83.844 434.719 161.07 512 256 512s172.156-77.281 172.156-172.25c0-31.047-8.359-61.469-24.164-88.047zm-39.125 196.938c-14.148 14.172-30.609 25.281-48.938 33.047-18.961 8.031-39.125 12.078-59.93 12.078s-40.969-4.047-59.922-12.078c-18.336-7.766-34.797-18.875-48.945-33.047-14.148-14.141-25.258-30.609-33-48.969-8.023-18.953-12.094-39.141-12.094-59.922 0-27.688 7.438-54.844 21.508-78.531L256 27.578l132.102 233.016c14.391 24.172 21.859 51.406 21.859 79.156 0 20.781-4.07 40.969-12.094 59.938-7.742 18.343-18.851 34.828-33 48.953z" fill="#468432" opacity="1" data-original="#000000"/>
    <path d="M256.492 434.453h-.547c-25.305-.016-49.078-9.859-66.938-27.75-17.883-17.859-27.734-41.656-27.734-66.953 0-5.031-4.078-9.109-9.094-9.109-5.023 0-9.102 4.078-9.102 9.109 0 62.25 50.633 112.922 112.867 112.922H256c5.023 0 9.102-4.094 9.102-9.125 0-4.844-3.821-8.844-8.61-9.094z" fill="#468432" opacity="1" data-original="#000000"/>
  </g>
</svg>
